<?xml version="1.0" encoding="UTF-8"?>
<svg width="24px" height="24px" viewBox="0 0 24 24" version="1.1" xmlns="http://www.w3.org/2000/svg" xmlns:xlink="http://www.w3.org/1999/xlink">
    <title>Settings</title>
    <desc>Created with Sketch.</desc>
    <g id="Page-1" stroke="none" stroke-width="1" fill="none" fill-rule="evenodd">
        <g id="iconmonstr-gear-1" fill="#72767A" fill-rule="nonzero">
            <path d="M24,13.616 L24,10.384 C22.349,9.797 21.306,9.632 20.781,8.365 L20.781,8.364 C20.254,7.093 20.881,6.23 21.628,4.657 L19.343,2.372 C17.782,3.114 16.91,3.747 15.636,3.219 L15.635,3.219 C14.366,2.693 14.2,1.643 13.616,8.8817842e-16 L10.384,8.8817842e-16 C9.802,1.635 9.635,2.692 8.365,3.219 L8.364,3.219 C7.093,3.747 6.232,3.121 4.657,2.372 L2.372,4.657 C3.117,6.225 3.747,7.091 3.219,8.364 C2.692,9.635 1.635,9.802 8.8817842e-16,10.384 L8.8817842e-16,13.616 C1.632,14.196 2.692,14.365 3.219,15.635 C3.749,16.917 3.105,17.801 2.372,19.342 L4.657,21.628 C6.219,20.885 7.091,20.253 8.364,20.781 L8.365,20.781 C9.635,21.307 9.801,22.36 10.384,24 L13.616,24 C14.198,22.364 14.366,21.31 15.643,20.778 L15.644,20.778 C16.906,20.254 17.764,20.879 19.342,21.629 L21.627,19.343 C20.883,17.78 20.252,16.91 20.779,15.637 C21.306,14.366 22.367,14.197 24,13.616 L24,13.616 Z M12,16 C9.791,16 8,14.209 8,12 C8,9.791 9.791,8 12,8 C14.209,8 16,9.791 16,12 C16,14.209 14.209,16 12,16 Z" id="Shape"></path>
        </g>
    </g>
</svg>
